<mxfile host="65bd71144e">
    <diagram name="Page-1" id="wcgOos6rgzUaSgGd2ciS">
        <mxGraphModel dx="1192" dy="700" grid="1" gridSize="10" guides="1" tooltips="1" connect="1" arrows="1" fold="1" page="1" pageScale="1" pageWidth="850" pageHeight="1100" math="0" shadow="1">
            <root>
                <mxCell id="0"/>
                <mxCell id="1" parent="0"/>
                <mxCell id="alajQgD-_6LAcQueJdGs-7" style="edgeStyle=orthogonalEdgeStyle;rounded=0;orthogonalLoop=1;jettySize=auto;html=1;exitX=0.5;exitY=1;exitDx=0;exitDy=0;entryX=0.5;entryY=0;entryDx=0;entryDy=0;" parent="1" source="alajQgD-_6LAcQueJdGs-1" target="alajQgD-_6LAcQueJdGs-3" edge="1">
                    <mxGeometry relative="1" as="geometry"/>
                </mxCell>
                <mxCell id="alajQgD-_6LAcQueJdGs-8" style="edgeStyle=orthogonalEdgeStyle;rounded=0;orthogonalLoop=1;jettySize=auto;html=1;exitX=0.5;exitY=1;exitDx=0;exitDy=0;entryX=0.5;entryY=0;entryDx=0;entryDy=0;" parent="1" source="alajQgD-_6LAcQueJdGs-1" target="alajQgD-_6LAcQueJdGs-4" edge="1">
                    <mxGeometry relative="1" as="geometry"/>
                </mxCell>
                <mxCell id="alajQgD-_6LAcQueJdGs-9" style="edgeStyle=orthogonalEdgeStyle;rounded=0;orthogonalLoop=1;jettySize=auto;html=1;exitX=0.5;exitY=1;exitDx=0;exitDy=0;entryX=0.5;entryY=0;entryDx=0;entryDy=0;" parent="1" source="alajQgD-_6LAcQueJdGs-1" target="alajQgD-_6LAcQueJdGs-5" edge="1">
                    <mxGeometry relative="1" as="geometry"/>
                </mxCell>
                <mxCell id="alajQgD-_6LAcQueJdGs-10" style="edgeStyle=orthogonalEdgeStyle;rounded=0;orthogonalLoop=1;jettySize=auto;html=1;exitX=0.5;exitY=1;exitDx=0;exitDy=0;entryX=0.5;entryY=0;entryDx=0;entryDy=0;" parent="1" source="alajQgD-_6LAcQueJdGs-1" target="alajQgD-_6LAcQueJdGs-6" edge="1">
                    <mxGeometry relative="1" as="geometry"/>
                </mxCell>
                <mxCell id="h1vsSZ6MKY0xctxsVCf_-2" style="edgeStyle=orthogonalEdgeStyle;rounded=0;orthogonalLoop=1;jettySize=auto;html=1;exitX=0.5;exitY=1;exitDx=0;exitDy=0;entryX=0.5;entryY=0;entryDx=0;entryDy=0;" parent="1" source="alajQgD-_6LAcQueJdGs-1" target="h1vsSZ6MKY0xctxsVCf_-1" edge="1">
                    <mxGeometry relative="1" as="geometry"/>
                </mxCell>
                <mxCell id="alajQgD-_6LAcQueJdGs-1" value="&lt;font style=&quot;font-size: 17px;&quot;&gt;Hệ thống gợi ý sản phâm cá nhân hóa trong phần mềm thương mai điện tử&lt;/font&gt;" style="rounded=1;whiteSpace=wrap;html=1;" parent="1" vertex="1">
                    <mxGeometry x="350" y="40" width="400" height="80" as="geometry"/>
                </mxCell>
                <mxCell id="alajQgD-_6LAcQueJdGs-3" value="Hệ thống quản lý Routers&lt;div&gt;(FastAPI)&lt;/div&gt;" style="rounded=0;whiteSpace=wrap;html=1;" parent="1" vertex="1">
                    <mxGeometry x="40" y="200" width="160" height="80" as="geometry"/>
                </mxCell>
                <mxCell id="alajQgD-_6LAcQueJdGs-4" value="Hệ thống lưu trữ dữ liệu&lt;div&gt;Cache (Redis)&lt;/div&gt;" style="rounded=0;whiteSpace=wrap;html=1;" parent="1" vertex="1">
                    <mxGeometry x="240" y="200" width="160" height="80" as="geometry"/>
                </mxCell>
                <mxCell id="alajQgD-_6LAcQueJdGs-5" value="Hệ thống lưu trữ, quản lý&lt;div&gt;trạng thái hệ thống&lt;/div&gt;" style="rounded=0;whiteSpace=wrap;html=1;" parent="1" vertex="1">
                    <mxGeometry x="440" y="200" width="160" height="80" as="geometry"/>
                </mxCell>
                <mxCell id="alajQgD-_6LAcQueJdGs-6" value="Hệ thống phân tích và huấn luyện chạy mô hình AI" style="rounded=0;whiteSpace=wrap;html=1;" parent="1" vertex="1">
                    <mxGeometry x="640" y="200" width="160" height="80" as="geometry"/>
                </mxCell>
                <mxCell id="h1vsSZ6MKY0xctxsVCf_-1" value="Hệ thống quản lý các cấu hình của toàn bộ hệ thống" style="rounded=0;whiteSpace=wrap;html=1;" parent="1" vertex="1">
                    <mxGeometry x="840" y="200" width="160" height="80" as="geometry"/>
                </mxCell>
            </root>
        </mxGraphModel>
    </diagram>
</mxfile>